<?xml version="1.0" encoding="UTF-8"?>
<svg id="Layer_1" data-name="Layer 1" xmlns="http://www.w3.org/2000/svg" xmlns:xlink="http://www.w3.org/1999/xlink" viewBox="0 0 512 512">
  <defs>
    <style>
      .cls-1 {
        stroke: url(#linear-gradient-2);
      }

      .cls-1, .cls-2 {
        stroke-linecap: round;
        stroke-width: 12px;
      }

      .cls-1, .cls-2, .cls-3 {
        fill: none;
        stroke-miterlimit: 10;
      }

      .cls-2 {
        stroke: url(#linear-gradient-3);
      }

      .cls-3 {
        stroke: #2e2c31;
        stroke-width: 8px;
      }

      .cls-4 {
        fill: url(#linear-gradient);
      }

      .cls-5 {
        fill: #2e2c31;
      }
    </style>
    <linearGradient id="linear-gradient" x1="253.57" y1="136" x2="264.06" y2="658.78" gradientUnits="userSpaceOnUse">
      <stop offset="0" stop-color="#74c164"/>
      <stop offset="1" stop-color="#498d53"/>
    </linearGradient>
    <linearGradient id="linear-gradient-2" x1="162.52" y1="244.93" x2="185.89" y2="244.93" xlink:href="#linear-gradient"/>
    <linearGradient id="linear-gradient-3" x1="326.13" y1="269.07" x2="349.45" y2="269.07" xlink:href="#linear-gradient"/>
  </defs>
  <rect class="cls-4" x="-5.44" y="-4.44" width="522.89" height="522.89"/>
  <g>
    <circle class="cls-3" cx="256" cy="257" r="119.32"/>
    <ellipse class="cls-3" cx="256" cy="257" rx="50.71" ry="84.41" transform="translate(-64.12 86.39) rotate(-17.06)"/>
  </g>
  <g>
    <path class="cls-5" d="M270.36,76.83L114.67,123.43c-2.59,.78-4.57,2.87-5.19,5.5l-38.4,161.99c-.62,2.63,.2,5.39,2.17,7.25l118.2,111.53c2.7,2.54,7.14,1.22,7.99-2.39L276.43,82.55c.86-3.61-2.52-6.79-6.07-5.72Z"/>
    <path class="cls-5" d="M440.92,223.08l-38.4,161.99c-.62,2.63-2.6,4.73-5.19,5.5l-155.69,46.6c-3.55,1.06-6.92-2.12-6.07-5.72L312.56,106.69c.86-3.61,5.29-4.94,7.99-2.39l118.2,111.53c1.97,1.86,2.79,4.62,2.17,7.25Z"/>
  </g>
  <g>
    <line class="cls-1" x1="179.89" y1="286.52" x2="168.52" y2="203.34"/>
    <line class="cls-2" x1="332.13" y1="227.62" x2="343.45" y2="310.51"/>
  </g>
</svg>